# xmcd
#
# Track frame offsets: 
#        150
#        12817
#        26530
#        39770
#        54285
#        66802
#        80180
#        93855
#        106270
#        120185
#        133842
#        145797
#        158950
#        171792
#        184442
#        199230
#        214257
#        231672
#        245605
#        257880
#
# Disc length: 3615 seconds
#
# Revision: 0
# Processed by: cddbd v1.5.2PL0 Copyright (c) Steve Scherf et al.
# Submitted via: ExactAudioCopyFreeDBPlugin 1.0
#
DISCID=190e1d14
DTITLE=Artisti vari - Nothing But The Blues
DYEAR=2004
DGENRE=Blues
TTITLE0=Muddy Waters - I'm Your Hoochie Coochie Man
TTITLE1=John Lee Hooker - Welfare Blues
TTITLE2=Jimmy Rogers - Left Me With A Broken Heart
TTITLE3=Big Bill Broonzy - Romance Without Finance
TTITLE4=Memphis Slim - The Come Back
TTITLE5=B.B. King - Woke Up This Morning
TTITLE6=Joe Hill Louis - Heartache Baby
TTITLE7=Floyd Dixon - Baby Come Baby
TTITLE8=Jimmy Reed - You Don't Have To Go
TTITLE9=T-Bone Walker - Call It Stormy Monday
TTITLE10=Lowell Fulson - Why Can't Yoy Cry For Me
TTITLE11=Bobo Thomas and Sonny Boy Williamson - Catfish Blues
TTITLE12=Brownie McGhee - I'm Black Woman's Man
TTITLE13=Lightnin' Hopkins - Fast Mail Rambler
TTITLE14=Willie Dixon - Third Degree
TTITLE15=Big Joe Williams and Sonny Boy Williamson - Baby Please Don't G
TTITLE15=o
TTITLE16=Howlin' Wolf - Crying At Daybreak
TTITLE17=Johnny Otis - Midnight In The Barrelhouse
TTITLE18=Sonny Terry - Whoopin' The Blues
TTITLE19=Yank Rachell and Sonny Boy Williamson - Hobo Blues
EXTD=
EXTT0=
EXTT1=
EXTT2=
EXTT3=
EXTT4=
EXTT5=
EXTT6=
EXTT7=
EXTT8=
EXTT9=
EXTT10=
EXTT11=
EXTT12=
EXTT13=
EXTT14=
EXTT15=
EXTT16=
EXTT17=
EXTT18=
EXTT19=
PLAYORDER=
